<svg width="1440" height="757" viewBox="0 0 1440 757" fill="none" xmlns="http://www.w3.org/2000/svg">
<g clip-path="url(#clip0_1_2)">
<path d="M1440 0H0V757H1440V0Z" fill="#0B0C0F"/>
<path d="M0 514.76L34.4 519.428C68.8 523.97 137.6 533.306 206.08 535.956C274.72 538.732 342.88 534.947 411.52 531.162C480 527.377 548.8 523.592 617.28 535.956C685.92 548.446 754.08 576.96 822.72 574.311C891.2 571.535 960 537.47 1028.48 527.124C1097.12 516.905 1165.28 530.278 1233.92 544.661C1302.4 558.918 1371.2 574.058 1405.6 581.628L1440 589.198V758.262H1405.6C1371.2 758.262 1302.4 758.262 1233.92 758.262C1165.28 758.262 1097.12 758.262 1028.48 758.262C960 758.262 891.2 758.262 822.72 758.262C754.08 758.262 685.92 758.262 617.28 758.262C548.8 758.262 480 758.262 411.52 758.262C342.88 758.262 274.72 758.262 206.08 758.262C137.6 758.262 68.8 758.262 34.4 758.262H0V514.76Z" fill="#EF3226" fill-opacity="0.4"/>
<path d="M0 584.152L34.4 582.259C68.8 580.367 137.6 576.582 206.08 581.25C274.72 585.792 342.88 598.913 411.52 600.806C480 602.698 548.8 593.362 617.28 585.792C685.92 578.222 754.08 572.418 822.72 567.498C891.2 562.703 960 558.918 1028.48 563.586C1097.12 568.128 1165.28 581.25 1233.92 580.619C1302.4 579.988 1371.2 565.605 1405.6 558.54L1440 551.348V758.262H1405.6C1371.2 758.262 1302.4 758.262 1233.92 758.262C1165.28 758.262 1097.12 758.262 1028.48 758.262C960 758.262 891.2 758.262 822.72 758.262C754.08 758.262 685.92 758.262 617.28 758.262C548.8 758.262 480 758.262 411.52 758.262C342.88 758.262 274.72 758.262 206.08 758.262C137.6 758.262 68.8 758.262 34.4 758.262H0V584.152Z" fill="#EF3226" fill-opacity="0.6"/>
<path d="M0 653.543L34.4 658.59C68.8 663.637 137.6 673.73 206.08 674.109C274.72 674.613 342.88 665.277 411.52 663.006C480 660.735 548.8 665.277 617.28 663.006C685.92 660.735 754.08 651.399 822.72 642.819C891.2 634.24 960 626.165 1028.48 630.455C1097.12 634.618 1165.28 651.02 1233.92 650.642C1302.4 650.137 1371.2 632.978 1405.6 624.273L1440 615.693V758.262H1405.6C1371.2 758.262 1302.4 758.262 1233.92 758.262C1165.28 758.262 1097.12 758.262 1028.48 758.262C960 758.262 891.2 758.262 822.72 758.262C754.08 758.262 685.92 758.262 617.28 758.262C548.8 758.262 480 758.262 411.52 758.262C342.88 758.262 274.72 758.262 206.08 758.262C137.6 758.262 68.8 758.262 34.4 758.262H0V653.543Z" fill="#EF3226" fill-opacity="0.8"/>
<path d="M549.772 566.186C546.032 558.054 549.494 548.392 557.504 544.604L819.241 420.858C827.252 417.07 836.778 420.592 840.518 428.724L912.854 586.006C916.594 594.138 913.132 603.801 905.121 607.588L643.384 731.335C635.374 735.122 625.848 731.6 622.108 723.468L549.772 566.186Z" fill="white" fill-opacity="0.18"/>
<path d="M629.442 666.989C627.742 663.292 629.316 658.9 632.957 657.179L650.098 649.074C653.739 647.353 658.069 648.954 659.769 652.65L665.618 665.367C667.318 669.063 665.744 673.455 662.103 675.177L644.962 683.281C641.32 685.002 636.991 683.401 635.291 679.705L629.442 666.989Z" fill="#111111"/>
<path d="M662.315 630.262C660.615 626.565 662.188 622.173 665.829 620.452L682.312 612.659C685.953 610.938 690.283 612.538 691.983 616.235L705.834 646.353C707.534 650.049 705.961 654.441 702.32 656.163L685.837 663.955C682.196 665.677 677.866 664.076 676.166 660.379L662.315 630.262Z" fill="#111111"/>
<path d="M693.648 590.188C691.948 586.492 693.522 582.1 697.163 580.378L713.645 572.585C717.286 570.864 721.616 572.465 723.316 576.161L746.71 627.027C748.41 630.723 746.836 635.115 743.195 636.837L726.713 644.629C723.072 646.351 718.742 644.75 717.042 641.054L693.648 590.188Z" fill="#111111"/>
<path d="M721.244 543.733C719.544 540.037 721.118 535.645 724.759 533.923L741.901 525.819C745.542 524.098 749.872 525.699 751.572 529.395L787.586 607.701C789.286 611.398 787.712 615.79 784.071 617.511L766.93 625.615C763.288 627.337 758.959 625.736 757.259 622.04L721.244 543.733Z" fill="#111111"/>
<path d="M800.671 455.768C800.312 455.583 799.876 455.789 799.785 456.187L798.534 461.639C798.417 462.151 798.933 462.577 799.403 462.354L800.968 461.614L813.189 488.185C813.68 488.012 814.168 487.815 814.651 487.595L815.071 487.396C815.51 487.182 815.936 486.951 816.349 486.705L804.124 460.123L805.576 459.436C806.046 459.213 806.057 458.539 805.594 458.301L800.671 455.768Z" fill="#111111"/>
<path d="M810.362 488.921C810.351 488.883 810.337 488.844 810.319 488.807L802.112 470.961C801.938 470.582 801.494 470.418 801.12 470.595L799.317 471.447C798.944 471.624 798.783 472.074 798.957 472.453L806.637 489.153C807.872 489.209 809.12 489.135 810.362 488.921Z" fill="#111111"/>
<path d="M803.256 488.662L799.627 480.77C799.482 480.455 799.061 480.342 798.688 480.519L796.885 481.371C796.512 481.548 796.326 481.946 796.471 482.261L798.533 486.744C800.012 487.609 801.604 488.255 803.256 488.662Z" fill="#111111"/>
<path d="M821.313 482.286C820.558 483.271 819.697 484.181 818.737 484.998C818.707 484.957 818.68 484.912 818.658 484.864L810.451 467.019C810.276 466.64 810.438 466.19 810.811 466.013L812.614 465.161C812.988 464.984 813.432 465.148 813.606 465.527L821.313 482.286Z" fill="#111111"/>
<path d="M824.75 474.545C824.437 476.224 823.893 477.848 823.135 479.368C823.125 479.353 823.115 479.337 823.106 479.321C823.101 479.311 823.095 479.3 823.09 479.289L819.459 471.393C819.314 471.078 819.499 470.679 819.873 470.503L821.676 469.65C822.049 469.474 822.469 469.586 822.614 469.901L824.75 474.545Z" fill="#111111"/>
<path d="M800.098 467.179C800.447 467.937 800.124 468.838 799.377 469.191C798.63 469.544 797.742 469.215 797.394 468.457C797.045 467.699 797.368 466.798 798.114 466.445C798.861 466.092 799.749 466.421 800.098 467.179Z" fill="#111111"/>
<path d="M797.771 477.331C798.119 478.089 797.797 478.99 797.05 479.343C796.303 479.696 795.415 479.368 795.066 478.61C794.718 477.852 795.04 476.951 795.787 476.598C796.534 476.245 797.422 476.573 797.771 477.331Z" fill="#111111"/>
<path d="M820.706 466.349C821.054 467.107 820.732 468.008 819.985 468.361C819.238 468.714 818.35 468.385 818.001 467.627C817.653 466.869 817.975 465.968 818.722 465.615C819.469 465.262 820.357 465.59 820.706 466.349Z" fill="#111111"/>
<path d="M811.592 461.745C811.94 462.503 811.618 463.403 810.871 463.757C810.124 464.11 809.236 463.781 808.887 463.023C808.539 462.265 808.861 461.364 809.608 461.011C810.355 460.658 811.243 460.986 811.592 461.745Z" fill="#111111"/>
<path fill-rule="evenodd" clip-rule="evenodd" d="M829.583 461.19C835.278 473.573 830.006 488.287 817.808 494.054C805.611 499.821 791.106 494.458 785.411 482.075C779.716 469.692 784.987 454.979 797.185 449.212C809.383 443.445 823.888 448.808 829.583 461.19ZM826.315 462.736C831.167 473.286 826.676 485.823 816.283 490.736C805.89 495.65 793.531 491.08 788.678 480.53C783.826 469.979 788.318 457.443 798.711 452.529C809.104 447.615 821.463 452.185 826.315 462.736Z" fill="#111111"/>
<path d="M817.895 614.235L820.895 612.817L827.674 619.167L827.809 619.104L827.368 609.756L830.369 608.338L835.741 620.02L833.381 621.136L829.884 613.532L829.789 613.577L830.282 622.532L828.675 623.292L822.213 617.124L822.117 617.17L825.627 624.802L823.267 625.917L817.895 614.235Z" fill="#111111"/>
<path d="M845.634 608.231C846.22 609.505 846.481 610.702 846.416 611.82C846.355 612.937 846.025 613.924 845.425 614.782C844.827 615.634 844.021 616.3 843.006 616.78C841.983 617.263 840.957 617.461 839.927 617.374C838.897 617.287 837.941 616.908 837.058 616.238C836.175 615.567 835.441 614.597 834.857 613.327C834.271 612.053 834.009 610.857 834.07 609.741C834.131 608.624 834.46 607.639 835.058 606.787C835.654 605.932 836.463 605.262 837.486 604.778C838.501 604.298 839.524 604.102 840.553 604.189C841.585 604.271 842.542 604.647 843.425 605.317C844.312 605.986 845.048 606.958 845.634 608.231ZM843.168 609.398C842.788 608.572 842.346 607.934 841.842 607.483C841.342 607.029 840.805 606.76 840.232 606.674C839.659 606.589 839.079 606.685 838.491 606.963C837.903 607.241 837.457 607.63 837.153 608.13C836.85 608.63 836.706 609.221 836.723 609.903C836.744 610.583 836.944 611.335 837.324 612.161C837.703 612.986 838.143 613.625 838.644 614.078C839.148 614.53 839.686 614.798 840.259 614.884C840.832 614.969 841.413 614.873 842.001 614.595C842.589 614.317 843.035 613.928 843.338 613.428C843.642 612.928 843.783 612.338 843.763 611.658C843.745 610.976 843.547 610.223 843.168 609.398Z" fill="#111111"/>
<path d="M854.375 596.988L859.748 608.67L857.647 609.663L849.259 604.678L849.174 604.717L852.556 612.07L850.123 613.22L844.75 601.538L846.885 600.529L855.232 605.527L855.333 605.48L851.954 598.133L854.375 596.988Z" fill="#111111"/>
<path d="M861.758 607.719L856.386 596.037L864.14 592.371L865.076 594.408L859.755 596.923L861.035 599.707L865.958 597.38L866.894 599.416L861.972 601.743L863.255 604.533L868.598 602.006L869.535 604.043L861.758 607.719Z" fill="#111111"/>
<path d="M868.153 590.474L875.016 598.034L875.123 597.984L873.828 587.791L876.525 586.515L877.931 600.073L874.796 601.555L865.45 591.751L868.153 590.474Z" fill="#111111"/>
<path d="M890.523 587.009C891.108 588.283 891.369 589.479 891.304 590.597C891.243 591.714 890.913 592.701 890.313 593.559C889.715 594.411 888.909 595.077 887.894 595.557C886.871 596.041 885.845 596.239 884.815 596.152C883.785 596.064 882.829 595.685 881.946 595.015C881.063 594.344 880.33 593.374 879.745 592.104C879.16 590.83 878.897 589.635 878.958 588.518C879.019 587.401 879.348 586.417 879.946 585.565C880.542 584.709 881.352 584.039 882.374 583.556C883.389 583.076 884.412 582.879 885.441 582.967C886.473 583.048 887.431 583.424 888.314 584.095C889.2 584.763 889.937 585.735 890.523 587.009ZM888.056 588.175C887.676 587.35 887.234 586.711 886.73 586.26C886.23 585.807 885.693 585.537 885.121 585.452C884.548 585.366 883.967 585.462 883.379 585.74C882.791 586.018 882.345 586.407 882.041 586.907C881.738 587.407 881.594 587.998 881.612 588.68C881.632 589.36 881.833 590.113 882.212 590.938C882.592 591.763 883.032 592.402 883.532 592.855C884.036 593.307 884.575 593.576 885.147 593.661C885.72 593.747 886.301 593.65 886.889 593.372C887.477 593.094 887.923 592.705 888.227 592.205C888.53 591.705 888.672 591.115 888.651 590.435C888.634 589.754 888.435 589 888.056 588.175Z" fill="#111111"/>
<path d="M0 662.375L34.4 670.323C68.8 678.398 137.6 694.295 206.08 695.178C274.72 696.061 342.88 681.678 411.52 674.739C480 667.8 548.8 668.305 617.28 670.828C685.92 673.352 754.08 677.894 822.72 678.398C891.2 678.777 960 674.992 1028.48 672.721C1097.12 670.324 1165.28 669.566 1233.92 674.361C1302.4 679.155 1371.2 689.753 1405.6 694.926L1440 700.225V758.262H1405.6C1371.2 758.262 1302.4 758.262 1233.92 758.262C1165.28 758.262 1097.12 758.262 1028.48 758.262C960 758.262 891.2 758.262 822.72 758.262C754.08 758.262 685.92 758.262 617.28 758.262C548.8 758.262 480 758.262 411.52 758.262C342.88 758.262 274.72 758.262 206.08 758.262C137.6 758.262 68.8 758.262 34.4 758.262H0V662.375Z" fill="#EF3226"/>
</g>
<defs>
<clipPath id="clip0_1_2">
<rect width="1440" height="757" fill="white"/>
</clipPath>
</defs>
</svg>
