<svg width="324" height="206" viewBox="0 0 324 206" fill="none" xmlns="http://www.w3.org/2000/svg">
<path d="M2.00247 16.206C2.09714 7.25567 9.3569 0 18.2176 0L307.734 0C316.594 0 323.701 7.25566 323.606 16.206L321.775 189.315C321.68 198.266 314.42 205.521 305.56 205.521L16.0437 205.521C7.18305 205.521 0.076775 198.266 0.171445 189.315L2.00247 16.206Z" fill="white" fill-opacity="0.18"/>
<path d="M276.024 23.6234C275.778 23.3023 275.296 23.3023 275.043 23.6234L271.583 28.0176C271.257 28.4307 271.542 29.0358 272.062 29.0358H273.794L273.484 58.2806C274.003 58.334 274.528 58.3647 275.058 58.3716H275.523C276.011 58.3652 276.495 58.3387 276.974 58.2929L277.284 29.0358H278.89C279.41 29.0358 279.708 28.4307 279.392 28.0176L276.024 23.6234Z" fill="#111111"/>
<path d="M270.614 57.7378C270.62 57.6982 270.624 57.6576 270.624 57.6162L270.832 37.975C270.837 37.5578 270.505 37.2196 270.092 37.2196H268.098C267.685 37.2196 267.347 37.5578 267.342 37.975L267.148 56.3548C268.24 56.9341 269.4 57.4001 270.614 57.7378Z" fill="#111111"/>
<path d="M264.301 54.4667L264.393 45.7798C264.396 45.4328 264.065 45.1516 263.652 45.1516H261.657C261.244 45.1516 260.906 45.4328 260.903 45.7798L260.851 50.7132C261.818 52.1279 262.981 53.3925 264.301 54.4667Z" fill="#111111"/>
<path d="M283.351 56.4199C282.247 56.9876 281.079 57.4427 279.862 57.7703C279.852 57.7205 279.848 57.669 279.848 57.6162L280.056 37.975C280.06 37.5578 280.399 37.2196 280.812 37.2196H282.806C283.219 37.2196 283.55 37.5578 283.546 37.975L283.351 56.4199Z" fill="#111111"/>
<path d="M289.766 50.8905C288.766 52.2747 287.579 53.5107 286.245 54.5603C286.242 54.5424 286.24 54.5243 286.239 54.506C286.238 54.4941 286.238 54.482 286.238 54.4699L286.33 45.7798C286.334 45.4328 286.672 45.1516 287.085 45.1516H289.079C289.492 45.1516 289.824 45.4328 289.82 45.7798L289.766 50.8905Z" fill="#111111"/>
<path d="M270.628 33.6943C270.619 34.5287 269.943 35.2051 269.116 35.2051C268.29 35.2051 267.628 34.5287 267.637 33.6943C267.646 32.8599 268.322 32.1834 269.148 32.1834C269.975 32.1834 270.637 32.8599 270.628 33.6943Z" fill="#111111"/>
<path d="M264.185 41.878C264.176 42.7125 263.499 43.3889 262.673 43.3889C261.847 43.3889 261.185 42.7125 261.193 41.878C261.202 41.0436 261.879 40.3672 262.705 40.3672C263.531 40.3672 264.194 41.0436 264.185 41.878Z" fill="#111111"/>
<path d="M289.613 41.7522C289.605 42.5866 288.928 43.263 288.102 43.263C287.276 43.263 286.613 42.5866 286.622 41.7522C286.631 40.9177 287.308 40.2413 288.134 40.2413C288.96 40.2413 289.622 40.9177 289.613 41.7522Z" fill="#111111"/>
<path d="M283.342 33.6943C283.333 34.5287 282.656 35.2051 281.83 35.2051C281.004 35.2051 280.342 34.5287 280.35 33.6943C280.359 32.8599 281.036 32.1834 281.862 32.1834C282.688 32.1834 283.351 32.8599 283.342 33.6943Z" fill="#111111"/>
<path fill-rule="evenodd" clip-rule="evenodd" d="M299.843 40.8832C299.699 54.5121 288.645 65.5605 275.152 65.5605C261.66 65.5605 250.839 54.5121 250.983 40.8832C251.127 27.2544 262.182 16.206 275.674 16.206C289.167 16.206 299.988 27.2544 299.843 40.8832ZM296.229 40.8832C296.106 52.4956 286.687 61.9093 275.191 61.9093C263.695 61.9093 254.475 52.4956 254.598 40.8832C254.721 29.2709 264.14 19.8572 275.636 19.8572C287.132 19.8572 296.352 29.2709 296.229 40.8832Z" fill="#111111"/>
</svg>
