<svg width="500" height="500" viewBox="0 0 500 500" fill="none" xmlns="http://www.w3.org/2000/svg">
<path d="M500 250C500 388.071 388.071 500 250 500C111.929 500 0 388.071 0 250C0 111.929 111.929 0 250 0C388.071 0 500 111.929 500 250Z" fill="white"/>
<path d="M160.72 129.256C162.133 125.261 165.91 122.59 170.148 122.591L218.474 122.594C225.376 122.594 230.203 129.422 227.901 135.929L144.898 370.565C143.485 374.56 139.708 377.23 135.47 377.23L87.1446 377.23C80.2421 377.23 75.4152 370.402 77.7171 363.895L160.72 129.256Z" fill="#EF3226"/>
<path d="M340.133 370.744C338.72 374.739 334.942 377.41 330.705 377.409L282.379 377.406C275.477 377.406 270.65 370.578 272.952 364.071L355.955 129.435C357.368 125.44 361.145 122.77 365.382 122.77L413.708 122.77C420.611 122.77 425.438 129.598 423.136 136.105L340.133 370.744Z" fill="#EF3226"/>
<path d="M258.337 129.256C259.75 125.261 263.528 122.59 267.765 122.591L316.092 122.594C322.994 122.594 327.82 129.422 325.518 135.929L242.516 370.565C241.102 374.56 237.325 377.23 233.088 377.23L184.762 377.23C177.86 377.23 173.033 370.402 175.335 363.895L258.337 129.256Z" fill="#EF3226"/>
</svg>
