<svg width="562" height="562" viewBox="0 0 562 562" fill="none" xmlns="http://www.w3.org/2000/svg">
<circle cx="281" cy="281" r="281" fill="white"/>
<path d="M254.712 140.205C254.599 136.974 251.945 134.413 248.711 134.415L190.209 134.455C186.815 134.457 184.098 137.272 184.217 140.664L194.139 424.797C194.252 428.029 196.906 430.59 200.14 430.588L258.641 430.545C262.035 430.543 264.751 427.728 264.633 424.336L254.712 140.205Z" fill="#BC2C22"/>
<path d="M178.279 136.575C179.808 132.136 183.985 129.156 188.68 129.156L243.891 129.158C251.445 129.158 256.751 136.597 254.291 143.739L157.033 426.196C155.505 430.635 151.328 433.615 146.633 433.615L91.4225 433.616C83.8686 433.616 78.5624 426.177 81.0217 419.035L178.279 136.575Z" fill="#EF3226"/>
<path d="M367.712 138.205C367.599 134.974 364.945 132.413 361.711 132.415L303.209 132.455C299.815 132.457 297.098 135.272 297.217 138.664L307.139 422.797C307.252 426.029 309.906 428.59 313.14 428.588L371.641 428.545C375.035 428.543 377.751 425.728 377.633 422.336L367.712 138.205Z" fill="#BC2C22"/>
<path d="M404.903 136.575C406.432 132.136 410.609 129.156 415.304 129.156L470.515 129.158C478.068 129.158 483.374 136.597 480.915 143.739L383.657 426.196C382.129 430.635 377.951 433.615 373.257 433.615L318.046 433.616C310.492 433.616 305.186 426.177 307.646 419.035L404.903 136.575Z" fill="#EF3226"/>
<path d="M291.591 136.575C293.12 132.136 297.297 129.156 301.992 129.156L357.203 129.158C364.757 129.158 370.063 136.597 367.603 143.739L270.345 426.196C268.817 430.635 264.64 433.615 259.945 433.615L204.734 433.616C197.181 433.616 191.874 426.177 194.334 419.035L291.591 136.575Z" fill="#EF3226"/>
</svg>
