<svg width="512" height="512" viewBox="0 0 512 512" fill="none" xmlns="http://www.w3.org/2000/svg">
<path d="M260.484 76.9476C257.869 73.6161 252.824 73.6161 250.209 76.9476L214.432 122.533C211.069 126.819 214.122 133.096 219.57 133.096H237.714V436.478C243.151 437.032 248.657 437.35 254.22 437.422H259.086C264.204 437.356 269.274 437.082 274.286 436.607V133.096H291.124C296.572 133.096 299.625 126.819 296.261 122.533L260.484 76.9476Z" fill="#EF3226"/>
<path d="M207.572 430.848C207.639 430.437 207.673 430.015 207.673 429.586V225.83C207.673 221.502 204.165 217.994 199.837 217.994H178.939C174.611 217.994 171.102 221.502 171.102 225.83V416.5C182.612 422.51 194.821 427.345 207.572 430.848Z" fill="#EF3226"/>
<path d="M141.061 396.913V306.796C141.061 303.197 137.553 300.279 133.224 300.279H112.327C107.998 300.279 104.49 303.197 104.49 306.796V357.975C114.78 372.651 127.11 385.769 141.061 396.913Z" fill="#EF3226"/>
<path d="M340.898 417.176C329.396 423.065 317.208 427.786 304.49 431.185C304.383 430.668 304.327 430.133 304.327 429.586V225.83C304.327 221.502 307.835 217.994 312.163 217.994H333.061C337.389 217.994 340.898 221.502 340.898 225.83V417.176Z" fill="#EF3226"/>
<path d="M407.51 359.814C397.183 374.173 384.885 386.996 371.019 397.884C370.987 397.699 370.965 397.511 370.952 397.322C370.943 397.197 370.939 397.072 370.939 396.946V306.796C370.939 303.197 374.447 300.279 378.776 300.279H399.673C404.002 300.279 407.51 303.197 407.51 306.796V359.814Z" fill="#EF3226"/>
<path d="M205.061 181.422C205.061 190.078 198.044 197.096 189.388 197.096C180.732 197.096 173.714 190.078 173.714 181.422C173.714 172.766 180.732 165.749 189.388 165.749C198.044 165.749 205.061 172.766 205.061 181.422Z" fill="#EF3226"/>
<path d="M138.449 266.32C138.449 274.976 131.432 281.994 122.776 281.994C114.119 281.994 107.102 274.976 107.102 266.32C107.102 257.664 114.119 250.647 122.776 250.647C131.432 250.647 138.449 257.664 138.449 266.32Z" fill="#EF3226"/>
<path d="M404.898 265.014C404.898 273.67 397.881 280.688 389.224 280.688C380.568 280.688 373.551 273.67 373.551 265.014C373.551 256.358 380.568 249.341 389.224 249.341C397.881 249.341 404.898 256.358 404.898 265.014Z" fill="#EF3226"/>
<path d="M338.286 181.422C338.286 190.078 331.268 197.096 322.612 197.096C313.956 197.096 306.939 190.078 306.939 181.422C306.939 172.766 313.956 165.749 322.612 165.749C331.268 165.749 338.286 172.766 338.286 181.422Z" fill="#EF3226"/>
<path fill-rule="evenodd" clip-rule="evenodd" d="M512 256C512 397.385 397.385 512 256 512C114.615 512 0 397.385 0 256C0 114.615 114.615 0 256 0C397.385 0 512 114.615 512 256ZM474.122 256C474.122 376.466 376.466 474.122 256 474.122C135.534 474.122 37.8776 376.466 37.8776 256C37.8776 135.534 135.534 37.8776 256 37.8776C376.466 37.8776 474.122 135.534 474.122 256Z" fill="#EF3226"/>
</svg>
